<?xml version="1.0" encoding="UTF-8"?>
<svg xmlns="http://www.w3.org/2000/svg" xmlns:xlink="http://www.w3.org/1999/xlink" width="20px" height="20px" viewBox="0 0 20 20" version="1.1">
<g id="surface1">
<path style=" stroke:none;fill-rule:nonzero;fill:rgb(0%,0%,0%);fill-opacity:1;" d="M 16.832031 15.285156 L 7.675781 15.285156 C 7.183594 15.28125 6.707031 15.101562 6.320312 14.765625 C 5.933594 14.429688 5.660156 13.960938 5.542969 13.4375 L 2.847656 1.351562 C 2.808594 1.175781 2.714844 1.023438 2.585938 0.910156 C 2.457031 0.800781 2.296875 0.742188 2.132812 0.742188 L 0.5625 0.742188 L 0.5625 2.070312 L 0 2.070312 L 0 0.121094 L 2.132812 0.121094 C 2.425781 0.121094 2.710938 0.230469 2.941406 0.429688 C 3.167969 0.632812 3.328125 0.914062 3.390625 1.230469 L 6.097656 13.316406 C 6.183594 13.703125 6.386719 14.050781 6.671875 14.296875 C 6.957031 14.542969 7.3125 14.675781 7.675781 14.675781 L 16.832031 14.675781 Z M 16.832031 15.285156 "/>
<path style=" stroke:none;fill-rule:nonzero;fill:rgb(0%,0%,0%);fill-opacity:1;" d="M 17.054688 11.976562 L 5.441406 11.976562 L 5.441406 11.355469 L 16.832031 11.355469 L 18.625 3.363281 L 3.53125 3.363281 L 3.53125 2.746094 L 18.84375 2.746094 C 18.914062 2.742188 18.980469 2.761719 19.042969 2.792969 C 19.101562 2.824219 19.15625 2.875 19.195312 2.933594 C 19.242188 2.992188 19.273438 3.058594 19.285156 3.132812 C 19.300781 3.207031 19.296875 3.28125 19.277344 3.355469 L 17.355469 11.941406 Z M 17.054688 11.976562 "/>
<path style=" stroke:none;fill-rule:nonzero;fill:rgb(0%,0%,0%);fill-opacity:1;" d="M 14.714844 3.019531 L 13.945312 11.632812 L 14.507812 11.691406 L 15.277344 3.078125 Z M 14.714844 3.019531 "/>
<path style=" stroke:none;fill-rule:nonzero;fill:rgb(0%,0%,0%);fill-opacity:1;" d="M 7.839844 3.027344 L 7.28125 3.089844 L 8.050781 11.703125 L 8.613281 11.640625 Z M 7.839844 3.027344 "/>
<path style=" stroke:none;fill-rule:nonzero;fill:rgb(0%,0%,0%);fill-opacity:1;" d="M 11.550781 3.054688 L 10.988281 3.054688 L 10.988281 11.664062 L 11.550781 11.664062 Z M 11.550781 3.054688 "/>
<path style=" stroke:none;fill-rule:nonzero;fill:rgb(0%,0%,0%);fill-opacity:1;" d="M 18.050781 7.050781 L 4.476562 7.050781 L 4.476562 7.671875 L 18.050781 7.671875 Z M 18.050781 7.050781 "/>
<path style=" stroke:none;fill-rule:nonzero;fill:rgb(0%,0%,0%);fill-opacity:1;" d="M 8.339844 19.878906 C 8.0625 19.878906 7.792969 19.789062 7.558594 19.621094 C 7.328125 19.453125 7.148438 19.214844 7.039062 18.933594 C 6.933594 18.652344 6.90625 18.339844 6.957031 18.042969 C 7.011719 17.742188 7.144531 17.46875 7.339844 17.25 C 7.539062 17.035156 7.789062 16.890625 8.058594 16.828125 C 8.332031 16.769531 8.613281 16.800781 8.871094 16.921875 C 9.125 17.039062 9.34375 17.238281 9.496094 17.492188 C 9.648438 17.746094 9.730469 18.046875 9.730469 18.351562 C 9.730469 18.753906 9.582031 19.144531 9.320312 19.429688 C 9.0625 19.714844 8.707031 19.878906 8.339844 19.878906 Z M 8.339844 17.429688 C 8.175781 17.429688 8.011719 17.480469 7.875 17.582031 C 7.734375 17.679688 7.625 17.824219 7.5625 17.992188 C 7.496094 18.160156 7.480469 18.34375 7.511719 18.523438 C 7.542969 18.703125 7.621094 18.867188 7.734375 18.996094 C 7.851562 19.125 8 19.214844 8.164062 19.25 C 8.324219 19.285156 8.496094 19.269531 8.648438 19.199219 C 8.800781 19.128906 8.933594 19.011719 9.023438 18.863281 C 9.117188 18.710938 9.164062 18.53125 9.164062 18.351562 C 9.164062 18.109375 9.078125 17.875 8.925781 17.703125 C 8.769531 17.53125 8.558594 17.433594 8.339844 17.429688 Z M 8.339844 17.429688 "/>
<path style=" stroke:none;fill-rule:nonzero;fill:rgb(0%,0%,0%);fill-opacity:1;" d="M 13.90625 19.878906 C 13.628906 19.878906 13.355469 19.785156 13.125 19.617188 C 12.894531 19.449219 12.71875 19.207031 12.613281 18.925781 C 12.507812 18.644531 12.480469 18.332031 12.535156 18.035156 C 12.589844 17.734375 12.722656 17.460938 12.917969 17.246094 C 13.117188 17.03125 13.367188 16.886719 13.636719 16.828125 C 13.910156 16.769531 14.191406 16.804688 14.445312 16.921875 C 14.703125 17.039062 14.917969 17.238281 15.074219 17.492188 C 15.226562 17.746094 15.304688 18.046875 15.304688 18.351562 C 15.300781 18.757812 15.152344 19.144531 14.890625 19.429688 C 14.628906 19.71875 14.273438 19.878906 13.90625 19.878906 Z M 13.90625 17.433594 C 13.738281 17.429688 13.578125 17.480469 13.4375 17.582031 C 13.300781 17.679688 13.191406 17.824219 13.125 17.992188 C 13.0625 18.160156 13.042969 18.34375 13.074219 18.523438 C 13.105469 18.703125 13.183594 18.867188 13.300781 18.996094 C 13.417969 19.125 13.566406 19.214844 13.726562 19.25 C 13.890625 19.285156 14.058594 19.269531 14.210938 19.199219 C 14.363281 19.128906 14.496094 19.011719 14.589844 18.863281 C 14.679688 18.710938 14.730469 18.53125 14.730469 18.351562 C 14.730469 18.109375 14.644531 17.875 14.488281 17.703125 C 14.335938 17.53125 14.125 17.433594 13.90625 17.433594 Z M 13.90625 17.433594 "/>
</g>
</svg>
