<?xml version="1.0" encoding="UTF-8"?>
<svg xmlns="http://www.w3.org/2000/svg" xmlns:xlink="http://www.w3.org/1999/xlink" width="20px" height="20px" viewBox="0 0 20 20" version="1.1">
<g id="surface1">
<path style=" stroke:none;fill-rule:nonzero;fill:rgb(0%,0%,0%);fill-opacity:1;" d="M 10.171875 0.175781 C 8.230469 0.175781 6.332031 0.75 4.714844 1.828125 C 3.097656 2.910156 1.839844 4.445312 1.09375 6.238281 C 0.351562 8.035156 0.15625 10.011719 0.535156 11.917969 C 0.914062 13.824219 1.851562 15.574219 3.226562 16.949219 C 4.597656 18.324219 6.351562 19.257812 8.257812 19.636719 C 10.164062 20.015625 12.136719 19.820312 13.933594 19.078125 C 15.730469 18.335938 17.265625 17.074219 18.34375 15.460938 C 19.421875 13.84375 20 11.945312 20 10 C 20 7.394531 18.964844 4.894531 17.121094 3.050781 C 15.277344 1.210938 12.78125 0.175781 10.171875 0.175781 Z M 7.746094 1.191406 C 6.769531 2.101562 6.03125 3.242188 5.589844 4.503906 C 4.859375 4.328125 4.140625 4.09375 3.445312 3.800781 C 4.605469 2.539062 6.09375 1.628906 7.746094 1.167969 Z M 3 4.320312 C 3.765625 4.667969 4.5625 4.949219 5.378906 5.164062 C 4.910156 6.625 4.664062 8.148438 4.644531 9.683594 L 1.027344 9.683594 C 1.082031 7.722656 1.773438 5.832031 3 4.300781 Z M 3 15.679688 C 1.78125 14.15625 1.089844 12.277344 1.027344 10.324219 L 4.644531 10.324219 C 4.664062 11.867188 4.910156 13.398438 5.378906 14.867188 C 4.5625 15.0625 3.769531 15.328125 3 15.660156 Z M 3.445312 16.230469 C 4.144531 15.945312 4.859375 15.710938 5.589844 15.527344 C 6.023438 16.804688 6.761719 17.957031 7.746094 18.882812 C 6.085938 18.414062 4.59375 17.488281 3.4375 16.207031 Z M 9.839844 19.15625 C 8.355469 18.960938 7.054688 17.519531 6.230469 15.386719 C 7.417969 15.144531 8.625 15.015625 9.839844 15 Z M 9.839844 14.308594 C 8.550781 14.328125 7.269531 14.46875 6.007812 14.726562 C 5.570312 13.308594 5.335938 11.835938 5.316406 10.355469 L 9.839844 10.355469 Z M 9.839844 9.675781 L 5.316406 9.675781 C 5.328125 8.175781 5.5625 6.6875 6.007812 5.253906 C 7.265625 5.523438 8.550781 5.675781 9.839844 5.703125 Z M 9.839844 5.042969 C 8.625 5.023438 7.417969 4.894531 6.230469 4.65625 C 7.054688 2.511719 8.355469 1.078125 9.839844 0.886719 Z M 17.335938 4.351562 C 18.570312 5.871094 19.28125 7.75 19.371094 9.707031 L 15.691406 9.707031 C 15.671875 8.160156 15.425781 6.628906 14.96875 5.152344 C 15.78125 4.945312 16.574219 4.671875 17.335938 4.328125 Z M 16.890625 3.8125 C 16.195312 4.101562 15.476562 4.335938 14.746094 4.511719 C 14.304688 3.242188 13.5625 2.09375 12.582031 1.167969 C 14.234375 1.621094 15.726562 2.53125 16.890625 3.792969 Z M 10.550781 0.863281 C 12.03125 1.058594 13.332031 2.5 14.15625 4.632812 C 12.96875 4.871094 11.761719 5 10.550781 5.019531 Z M 10.550781 5.703125 C 11.835938 5.683594 13.121094 5.546875 14.378906 5.285156 C 14.828125 6.71875 15.0625 8.207031 15.082031 9.707031 L 10.550781 9.707031 Z M 10.550781 10.367188 L 15.082031 10.367188 C 15.0625 11.863281 14.828125 13.347656 14.378906 14.777344 C 13.121094 14.507812 11.835938 14.363281 10.550781 14.339844 Z M 10.550781 19.15625 L 10.550781 15 C 11.761719 15.015625 12.96875 15.144531 14.15625 15.386719 C 13.28125 17.507812 11.980469 18.910156 10.550781 19.136719 Z M 12.652344 18.851562 C 13.625 17.933594 14.359375 16.792969 14.796875 15.527344 C 15.527344 15.710938 16.242188 15.945312 16.941406 16.230469 C 15.761719 17.488281 14.25 18.390625 12.582031 18.832031 Z M 17.386719 15.722656 C 16.625 15.371094 15.832031 15.085938 15.019531 14.878906 C 15.476562 13.414062 15.722656 11.890625 15.742188 10.355469 L 19.371094 10.355469 C 19.28125 12.308594 18.570312 14.183594 17.335938 15.699219 Z M 17.386719 15.722656 "/>
</g>
</svg>
