<?xml version="1.0" encoding="UTF-8"?>
<svg xmlns="http://www.w3.org/2000/svg" xmlns:xlink="http://www.w3.org/1999/xlink" width="20px" height="20px" viewBox="0 0 20 20" version="1.1">
<g id="surface1">
<path style=" stroke:none;fill-rule:nonzero;fill:rgb(30.980392%,37.254902%,41.960784%);fill-opacity:1;" d="M 13.570312 5.355469 C 13.570312 6.34375 12.773438 7.144531 11.785156 7.144531 C 10.800781 7.144531 10 6.34375 10 5.355469 C 10 4.371094 10.800781 3.570312 11.785156 3.570312 C 12.773438 3.570312 13.570312 4.371094 13.570312 5.355469 Z M 13.570312 5.355469 "/>
<path style=" stroke:none;fill-rule:nonzero;fill:rgb(30.980392%,37.254902%,41.960784%);fill-opacity:1;" d="M 20 5.355469 C 20 6.34375 19.199219 7.144531 18.214844 7.144531 C 17.226562 7.144531 16.429688 6.34375 16.429688 5.355469 C 16.429688 4.371094 17.226562 3.570312 18.214844 3.570312 C 19.199219 3.570312 20 4.371094 20 5.355469 Z M 20 5.355469 "/>
<path style=" stroke:none;fill-rule:nonzero;fill:rgb(30.980392%,37.254902%,41.960784%);fill-opacity:1;" d="M 7.144531 11.785156 C 7.144531 12.773438 6.34375 13.570312 5.355469 13.570312 C 4.371094 13.570312 3.570312 12.773438 3.570312 11.785156 C 3.570312 10.800781 4.371094 10 5.355469 10 C 6.34375 10 7.144531 10.800781 7.144531 11.785156 Z M 7.144531 11.785156 "/>
<path style=" stroke:none;fill-rule:nonzero;fill:rgb(30.980392%,37.254902%,41.960784%);fill-opacity:1;" d="M 13.570312 11.785156 C 13.570312 12.773438 12.773438 13.570312 11.785156 13.570312 C 10.800781 13.570312 10 12.773438 10 11.785156 C 10 10.800781 10.800781 10 11.785156 10 C 12.773438 10 13.570312 10.800781 13.570312 11.785156 Z M 13.570312 11.785156 "/>
<path style=" stroke:none;fill-rule:nonzero;fill:rgb(30.980392%,37.254902%,41.960784%);fill-opacity:1;" d="M 20 11.785156 C 20 12.773438 19.199219 13.570312 18.214844 13.570312 C 17.226562 13.570312 16.429688 12.773438 16.429688 11.785156 C 16.429688 10.800781 17.226562 10 18.214844 10 C 19.199219 10 20 10.800781 20 11.785156 Z M 20 11.785156 "/>
<path style=" stroke:none;fill-rule:nonzero;fill:rgb(30.980392%,37.254902%,41.960784%);fill-opacity:1;" d="M 7.144531 18.214844 C 7.144531 19.199219 6.34375 20 5.355469 20 C 4.371094 20 3.570312 19.199219 3.570312 18.214844 C 3.570312 17.226562 4.371094 16.429688 5.355469 16.429688 C 6.34375 16.429688 7.144531 17.226562 7.144531 18.214844 Z M 7.144531 18.214844 "/>
<path style=" stroke:none;fill-rule:nonzero;fill:rgb(30.980392%,37.254902%,41.960784%);fill-opacity:1;" d="M 13.570312 18.214844 C 13.570312 19.199219 12.773438 20 11.785156 20 C 10.800781 20 10 19.199219 10 18.214844 C 10 17.226562 10.800781 16.429688 11.785156 16.429688 C 12.773438 16.429688 13.570312 17.226562 13.570312 18.214844 Z M 13.570312 18.214844 "/>
<path style=" stroke:none;fill-rule:nonzero;fill:rgb(30.980392%,37.254902%,41.960784%);fill-opacity:1;" d="M 20 18.214844 C 20 19.199219 19.199219 20 18.214844 20 C 17.226562 20 16.429688 19.199219 16.429688 18.214844 C 16.429688 17.226562 17.226562 16.429688 18.214844 16.429688 C 19.199219 16.429688 20 17.226562 20 18.214844 Z M 20 18.214844 "/>
<path style=" stroke:none;fill-rule:nonzero;fill:rgb(88.627451%,13.72549%,23.921569%);fill-opacity:1;" d="M 3.570312 1.785156 C 3.570312 2.773438 2.773438 3.570312 1.785156 3.570312 C 0.800781 3.570312 0 2.773438 0 1.785156 C 0 0.800781 0.800781 0 1.785156 0 C 2.773438 0 3.570312 0.800781 3.570312 1.785156 Z M 3.570312 1.785156 "/>
</g>
</svg>
